<svg xmlns="http://www.w3.org/2000/svg" viewBox="0 0 920 230" role="img" aria-labelledby="title desc">
  <title id="title">gthSERVICE</title>
  <desc id="desc">Graues segmentiertes G, orangefarbenes H und schwarzer Schriftzug SERVICE</desc>
  <defs><mask id="g-segments"><rect width="230" height="230" fill="white"/><rect x="105" width="16" height="58" fill="black"/><rect x="105" y="172" width="16" height="58" fill="black"/><rect y="106" width="61" height="16" fill="black"/></mask></defs>
  <path d="M113 10a103 103 0 1 0 0 206 103 103 0 0 0 103-103h-52a51 51 0 1 1-51-51z" fill="#626363" mask="url(#g-segments)"/>
  <path d="M121 68h49v50h-49z" fill="#626363"/>
  <path d="M121 10h184v54h-59v52h65V75h49v141h-49v-53h-65v53h-49V64h-76z" fill="#f26322"/>
  <path d="M246 116h65V75h49v141h-49v-53h-65v53h-49v-52h49z" fill="none" stroke="#f26322" stroke-width="6" stroke-linejoin="round"/>
  <text x="397" y="108" fill="#242223" font-family="Arial, Helvetica, sans-serif" font-size="104" font-weight="900" font-style="italic" letter-spacing="-5">SERVICE</text>
  <text x="405" y="151" fill="#626363" font-family="Arial, Helvetica, sans-serif" font-size="22" font-weight="700" letter-spacing="7">ZEITERFASSUNG</text>
</svg>

